<svg xmlns="http://www.w3.org/2000/svg" viewBox="0 0 280 280" width="560" height="560">
  <g transform="translate(140,20)">
    <line x1="-100" y1="22" x2="86" y2="22" stroke="#8B5E3C" stroke-width="8" stroke-linecap="round"/>
    <circle cx="-100" cy="22" r="13" stroke="#8B5E3C" stroke-width="6" fill="#F5EDD8"/>
    <circle cx="-100" cy="22" r="6" fill="#C4956A"/>
    <line x1="-86" y1="42" x2="100" y2="42" stroke="#8B5E3C" stroke-width="8" stroke-linecap="round"/>
    <circle cx="100" cy="42" r="13" stroke="#8B5E3C" stroke-width="6" fill="#F5EDD8"/>
    <circle cx="100" cy="42" r="6" fill="#C4956A"/>

    <line x1="-66" y1="22" x2="-66" y2="64" stroke="#8B5E3C" stroke-width="6" stroke-linecap="round"/>
    <line x1="-22" y1="22" x2="-22" y2="64" stroke="#8B5E3C" stroke-width="6" stroke-linecap="round"/>
    <line x1="22"  y1="22" x2="22"  y2="64" stroke="#8B5E3C" stroke-width="6" stroke-linecap="round"/>
    <line x1="66"  y1="22" x2="66"  y2="64" stroke="#8B5E3C" stroke-width="6" stroke-linecap="round"/>

    <line x1="-72" y1="38" x2="-60" y2="38" stroke="#8B5E3C" stroke-width="3.5" stroke-linecap="round"/>
    <line x1="-28" y1="38" x2="-16" y2="38" stroke="#8B5E3C" stroke-width="3.5" stroke-linecap="round"/>
    <line x1="16"  y1="38" x2="28"  y2="38" stroke="#8B5E3C" stroke-width="3.5" stroke-linecap="round"/>
    <line x1="60"  y1="38" x2="72"  y2="38" stroke="#8B5E3C" stroke-width="3.5" stroke-linecap="round"/>

    <polyline points="-92,84 -66,62 -44,84 -22,62 0,84 22,62 44,84 66,62 92,84" stroke="#8B5E3C" stroke-width="6.5" fill="none" stroke-linecap="round" stroke-linejoin="round"/>
    <polyline points="-92,90 -66,68 -44,90 -22,68 0,90 22,68 44,90 66,68 92,90" stroke="#C4956A" stroke-width="4" fill="none" stroke-linecap="round" stroke-linejoin="round" opacity="0.6"/>
    <polyline points="-92,114 -66,92 -44,114 -22,92 0,114 22,92 44,114 66,92 92,114" stroke="#8B5E3C" stroke-width="6.5" fill="none" stroke-linecap="round" stroke-linejoin="round"/>
    <polyline points="-92,120 -66,98 -44,120 -22,98 0,120 22,98 44,120 66,98 92,120" stroke="#C4956A" stroke-width="4" fill="none" stroke-linecap="round" stroke-linejoin="round" opacity="0.6"/>
    <polyline points="-92,144 -66,122 -44,144 -22,122 0,144 22,122 44,144 66,122 92,144" stroke="#8B5E3C" stroke-width="6.5" fill="none" stroke-linecap="round" stroke-linejoin="round"/>
    <polyline points="-92,150 -66,128 -44,150 -22,128 0,150 22,128 44,150 66,128 92,150" stroke="#C4956A" stroke-width="4" fill="none" stroke-linecap="round" stroke-linejoin="round" opacity="0.6"/>
  </g>
<path d="M706 149Q709 148 712.0 148.5Q715 149 718 149Q735 147 749.5 142.5Q764 138 778 126Q792 112 792 91Q792 80 788.5 67.5Q785 55 779 48Q771 40 759.0 36.0Q747 32 736.0 30.5Q725 29 716.5 29.0Q708 29 707 29H147Q142 29 137.0 28.5Q132 28 127 28Q106 27 82.0 28.5Q58 30 41 44Q20 63 20 87Q20 102 29.0 118.0Q38 134 53 140Q73 148 94.5 148.0Q116 148 138 149H143Q230 151 322 149L321 284Q309 284 297.0 284.5Q285 285 273 286Q247 288 217.0 286.5Q187 285 162 287Q136 289 114.5 299.5Q93 310 88 338Q83 366 81.5 391.5Q80 417 79.5 441.5Q79 466 79.5 491.0Q80 516 80 545V615Q80 628 79.5 644.0Q79 660 81.5 676.0Q84 692 90.5 705.0Q97 718 111 725Q126 732 145.0 736.5Q164 741 183.5 743.0Q203 745 222.5 745.5Q242 746 259 746H581Q582 746 593.5 745.5Q605 745 621.0 742.5Q637 740 653.5 736.5Q670 733 680 727Q692 720 699.0 704.5Q706 689 709.5 673.0Q713 657 713.5 644.5Q714 632 714 631V438Q714 415 713.5 392.0Q713 369 709 346Q707 332 702.0 318.0Q697 304 683 297Q666 289 639.0 288.5Q612 288 594 289Q573 289 552.0 287.5Q531 286 510 286H482H461L463 149Q491 149 512.0 149.5Q533 150 552.5 150.0Q572 150 592.0 150.0Q612 150 638 149Q656 148 673.0 149.5Q690 151 706 149ZM519 412Q528 414 537.0 413.0Q546 412 556 416Q562 419 565.0 424.5Q568 430 568.5 436.5Q569 443 568.5 450.0Q568 457 568 463V547Q568 563 568.0 574.5Q568 586 563.5 593.0Q559 600 546.0 603.0Q533 606 508 607H312Q312 607 304.5 607.0Q297 607 286.5 606.5Q276 606 265.0 605.0Q254 604 246 603Q233 601 225.0 592.0Q217 583 217 570L219 436Q221 424 229.5 418.5Q238 413 249.0 411.0Q260 409 271.5 409.5Q283 410 292 410Z" fill="#7B4F2E" transform="translate(45.41,238.00) scale(0.05200,-0.05200)"/>
<path d="M620 648Q620 661 620.5 676.5Q621 692 623.5 707.5Q626 723 630.5 736.5Q635 750 644 759Q657 772 676 772H678Q703 771 717.0 757.5Q731 744 738.5 725.0Q746 706 748.0 685.5Q750 665 750 649V56Q750 55 750.0 46.5Q750 38 748.0 26.0Q746 14 742.0 2.0Q738 -10 729 -18Q722 -25 709.0 -29.0Q696 -33 685 -33Q661 -33 647 -17Q634 -3 630.5 10.5Q627 24 625 41Q625 50 624.5 67.5Q624 85 624.0 105.5Q624 126 624.0 146.5Q624 167 624 181H562Q539 181 526.5 188.0Q514 195 509 206Q506 212 503.5 218.5Q501 225 501 232Q501 239 501.0 244.0Q501 249 503 256Q505 264 508.0 273.0Q511 282 517 287Q530 297 545 300Q561 303 582.5 303.5Q604 304 621 306Q621 313 621.0 327.5Q621 342 621.0 360.0Q621 378 620.5 396.5Q620 415 620 432L560 434Q541 435 526.0 439.0Q511 443 506 454Q499 468 499 481Q499 488 499.0 493.0Q499 498 501 505Q503 513 506.0 521.0Q509 529 515 534Q528 544 543 547Q554 549 573.5 549.5Q593 550 619 552Q619 585 619.0 611.5Q619 638 620 648ZM256 772Q269 772 281.0 771.0Q293 770 305 768Q343 762 372 733Q396 707 411.5 673.5Q427 640 436.0 603.0Q445 566 449.0 527.5Q453 489 455 453Q457 407 456.0 361.0Q455 315 450 270Q445 223 435.5 175.5Q426 128 401 90Q380 58 349.0 37.5Q318 17 284 10Q253 4 221.0 8.0Q189 12 160 29Q133 45 114.5 69.0Q96 93 82 125Q62 173 59 224Q55 266 53.5 308.0Q52 350 52 392Q52 421 52.5 448.5Q53 476 56 504Q58 527 61.0 549.5Q64 572 68 594Q72 612 75.0 628.0Q78 644 86 661Q94 678 103.5 693.0Q113 708 126 720Q148 742 175.0 754.0Q202 766 231 770Q237 771 243.5 771.0Q250 771 256 772ZM253 143Q272 143 290 155Q307 167 314.0 187.0Q321 207 326 231Q334 277 335.0 329.0Q336 381 334 429Q334 448 333.0 469.5Q332 491 329.5 512.0Q327 533 322.0 552.5Q317 572 308 587Q298 604 284.0 613.0Q270 622 254 620Q237 618 223.0 608.0Q209 598 200 578L191 557Q185 538 182.0 517.5Q179 497 177 477Q175 457 174.0 436.0Q173 415 173 395Q174 375 172.5 356.0Q171 337 173 317Q175 291 178.5 261.0Q182 231 190.0 204.5Q198 178 213.0 160.5Q228 143 253 143Z" fill="#7B4F2E" transform="translate(88.64,238.00) scale(0.05200,-0.05200)"/>
<path d="M531 409Q535 408 534.5 408.0Q534 408 536.0 408.0Q538 408 545.0 408.5Q552 409 570 409H633Q647 409 660 408Q683 406 705 398Q715 394 721.5 386.5Q728 379 731.0 371.0Q734 363 735.0 355.0Q736 347 735 342Q733 323 726.0 316.0Q719 309 697 299Q692 296 678.5 294.5Q665 293 651 292Q634 291 615 290H513Q493 291 468.5 292.5Q444 294 427 305Q419 311 414.5 318.5Q410 326 407.5 335.0Q405 344 404.0 353.5Q403 363 402 372Q400 386 399.5 400.0Q399 414 400 428V647Q400 650 400.5 658.0Q401 666 402.5 675.5Q404 685 406.5 695.0Q409 705 413 711Q417 718 425.5 725.0Q434 732 450 734Q461 736 503.0 737.0Q545 738 627 738Q649 738 668 735Q685 733 701.0 726.5Q717 720 725 708Q736 691 735.5 669.5Q735 648 723 631Q711 614 695.0 611.0Q679 608 662 608H531V539V480ZM172 409Q176 408 176 408Q176 408 178.0 408.0Q180 408 186.5 408.5Q193 409 211 409H264Q278 409 291 408Q315 406 337 398Q347 394 353.0 386.5Q359 379 362.0 371.0Q365 363 366.0 355.0Q367 347 366 342Q364 323 357.0 316.0Q350 309 329 299Q324 296 310.5 294.5Q297 293 283 292Q266 291 247 290H154Q134 291 109.5 292.5Q85 294 68 305Q52 316 49.0 335.5Q46 355 44 372Q42 386 41.5 400.0Q41 414 42 428V647Q42 650 42.5 658.0Q43 666 44.5 675.5Q46 685 48.0 695.0Q50 705 54 711Q59 718 67.0 725.0Q75 732 91 734Q97 735 106.5 736.0Q116 737 132.5 737.5Q149 738 173.0 738.0Q197 738 232 738H249Q271 738 290 735Q307 733 322.5 726.5Q338 720 346 708Q357 691 356.5 669.5Q356 648 344 631Q333 614 316.5 611.0Q300 608 283 608H172V539V480ZM106 33Q90 34 74.5 37.5Q59 41 47.0 47.5Q35 54 27.5 66.0Q20 78 20 98Q20 118 33 133Q41 141 53.0 145.0Q65 149 76.0 151.0Q87 153 95.5 153.0Q104 153 105 153L662 152Q688 152 709.5 151.5Q731 151 748 137Q769 118 769 94Q769 79 760.0 66.5Q751 54 736 49Q716 41 694.5 38.0Q673 35 652 34Q579 31 508.0 32.0Q437 33 370 33Q334 33 296.5 32.5Q259 32 224.5 32.0Q190 32 159.0 32.0Q128 32 106 33Z" fill="#7B4F2E" transform="translate(148.40,238.00) scale(0.05200,-0.05200)"/>
<path d="M763 43Q761 31 760.0 19.5Q759 8 755 -4Q753 -8 752.0 -11.0Q751 -14 749 -18Q742 -32 731 -40Q708 -54 680 -47Q664 -44 654 -35Q645 -27 640.5 -14.5Q636 -2 633.5 10.0Q631 22 631.0 31.0Q631 40 631 41V659Q631 671 631.0 685.0Q631 699 633.0 713.0Q635 727 639.0 739.0Q643 751 650 758Q661 769 673.0 771.5Q685 774 699 774Q716 774 730.5 764.5Q745 755 751 738Q760 717 761.0 694.0Q762 671 763 648V643Q765 566 764.0 485.0Q763 404 763 332V79Q763 70 763.5 61.0Q764 52 763 43ZM291 141Q290 153 290.0 165.0Q290 177 290 189V507Q290 523 290.0 539.0Q290 555 288 572Q287 577 285.5 586.0Q284 595 279 597Q274 600 267.5 599.5Q261 599 255 600Q248 601 241.5 600.0Q235 599 228 600H181Q164 599 147.0 600.0Q130 601 113 600Q105 599 98.5 599.5Q92 600 84 600Q73 600 61.0 601.0Q49 602 39 609Q25 619 20.0 634.0Q15 649 15 665Q14 684 23 703Q28 715 36 720Q41 725 50.5 728.5Q60 732 67 734Q88 739 111.0 739.5Q134 740 156 740H330Q343 738 357.5 736.5Q372 735 384 730Q392 727 399.5 722.0Q407 717 412 710Q421 696 422.5 682.0Q424 668 426 651Q428 623 428.0 595.5Q428 568 428 540V212Q428 211 428.5 196.5Q429 182 429.0 162.5Q429 143 429.0 121.5Q429 100 428 84Q427 74 425.0 63.0Q423 52 418.5 42.0Q414 32 406.0 24.0Q398 16 385 11Q368 4 351 4Q338 4 325.0 9.5Q312 15 307 26Q291 58 291 97Z" fill="#7B4F2E" transform="translate(190.43,238.00) scale(0.05200,-0.05200)"/>
<path d="M113 -19Q112 -19 110 -17Q100 -9 96.5 6.5Q93 22 93 33Q92 51 90.5 69.0Q89 87 89 104Q89 130 89.0 155.0Q89 180 94 205Q97 221 104.0 230.5Q111 240 126 246Q154 257 182 257H653Q672 256 692.0 254.0Q712 252 730 244Q750 236 756.5 217.5Q763 199 765 179Q766 162 766.5 139.5Q767 117 766.0 94.0Q765 71 763.0 48.5Q761 26 756 8Q753 -3 749.0 -11.5Q745 -20 733 -24Q722 -28 710.5 -29.0Q699 -30 688 -30L167 -28Q154 -27 139.0 -27.0Q124 -27 113 -19ZM505 499Q505 452 484.0 413.5Q463 375 425 346Q391 321 350.5 310.0Q310 299 269.0 301.5Q228 304 190.0 319.0Q152 334 122.5 359.5Q93 385 75.0 420.0Q57 455 57 499Q57 539 69.0 571.0Q81 603 102 628H84Q59 628 42.0 643.5Q25 659 25 681Q25 704 42.0 719.5Q59 735 84 735H216V767Q216 787 233.0 800.5Q250 814 274 814Q298 814 315.0 800.5Q332 787 332 767V735H471Q496 735 513.0 719.5Q530 704 530 681Q530 659 513.0 643.5Q496 628 471 628H459Q480 603 492.5 571.0Q505 539 505 499ZM744 470V370Q743 359 741.0 347.5Q739 336 733 325Q727 313 716 305Q702 295 683 295Q666 295 655 302Q645 308 639.0 317.0Q633 326 629.5 334.5Q626 343 625.0 349.5Q624 356 624 356V695Q623 699 625.0 717.0Q627 735 633 747Q643 768 673 771Q710 776 728 756Q734 748 736.5 740.5Q739 733 741 725Q744 715 744.5 704.0Q745 693 744 682V613V604Q744 599 743.5 593.5Q743 588 744 581Q748 581 759.0 580.5Q770 580 782.0 579.5Q794 579 805.0 578.0Q816 577 821 576Q841 572 849.0 564.5Q857 557 859 546Q862 535 862.0 520.5Q862 506 856 496Q844 476 820.0 473.5Q796 471 767 470ZM301 417Q333 423 356.5 442.5Q380 462 380 500Q380 530 365.5 550.0Q351 570 329.0 580.5Q307 591 281.0 591.0Q255 591 233.0 581.0Q211 571 196.5 550.5Q182 530 182 499Q182 472 193.0 454.5Q204 437 221.0 427.0Q238 417 259.0 415.0Q280 413 301 417ZM208 98Q208 93 208.5 88.5Q209 84 212 82Q214 80 218.5 79.5Q223 79 228 79Q233 79 240 80H553Q567 79 580 78Q591 77 603.0 77.0Q615 77 625 79Q635 80 637.0 84.5Q639 89 640 98Q641 106 641.0 116.5Q641 127 635 135Q628 143 615.5 143.5Q603 144 593 143H315Q293 145 272.0 144.5Q251 144 229 143Q221 143 216.5 142.5Q212 142 210 133Q208 126 208.0 119.5Q208 113 208 107Q209 105 208.5 103.0Q208 101 208 98Z" fill="#B08060" transform="translate(66.98,266.00) scale(0.01700,-0.01700)"/>
<path d="M277 612Q271 613 265.5 612.5Q260 612 254 613V556V225Q254 223 254.5 209.5Q255 196 255.0 177.0Q255 158 255.0 137.0Q255 116 254 100Q252 80 245.5 60.0Q239 40 216 29Q207 26 199.0 24.0Q191 22 185 22Q161 22 150 44Q138 72 136 112V155Q136 167 135.5 178.5Q135 190 135 202V523Q135 539 135.0 555.0Q135 571 133 586Q132 591 131.0 600.0Q130 609 125 611Q120 613 114.5 612.5Q109 612 103 613Q97 614 87.5 613.0Q78 612 71 613Q60 613 49.0 614.5Q38 616 29 622Q17 632 12.5 638.0Q8 644 8 661Q8 670 9.0 678.5Q10 687 15 696Q19 705 27 712Q32 717 40.0 720.5Q48 724 55 726Q65 728 69.0 729.0Q73 730 76.5 730.5Q80 731 85.0 731.0Q90 731 102 731Q105 731 114.5 731.0Q124 731 135.5 731.0Q147 731 157.0 730.5Q167 730 171 730H176Q184 731 191.0 731.0Q198 731 203 731H328Q333 731 337.5 731.0Q342 731 347 730Q359 729 368.0 727.5Q377 726 388 721Q395 718 402.0 713.0Q409 708 413 701Q421 687 422.0 673.5Q423 660 425 644Q428 618 427.5 586.0Q427 554 427 527V448H495V669Q495 682 495.0 695.5Q495 709 498 722Q500 727 501.5 731.0Q503 735 505 740Q511 750 517.0 755.5Q523 761 534 765Q539 767 544.5 767.5Q550 768 555 768Q572 768 582.5 760.0Q593 752 601 738Q605 732 606.5 721.0Q608 710 609.0 698.5Q610 687 610.0 678.5Q610 670 610 668V200V97Q610 72 608.5 57.0Q607 42 599 19Q594 4 584.0 -6.0Q574 -16 552 -16Q546 -16 537.0 -14.5Q528 -13 523 -9Q513 -3 507.5 10.5Q502 24 499.5 39.0Q497 54 496.5 68.0Q496 82 496 90L495 317L427 319V225Q427 223 427.5 209.5Q428 196 428.0 177.0Q428 158 428.0 137.0Q428 116 427 100Q426 85 421.5 71.0Q417 57 409.0 46.0Q401 35 388.0 28.5Q375 22 358 22Q347 22 339.5 27.5Q332 33 326 44Q313 73 313 112Q313 123 313.0 134.0Q313 145 312 155V523Q312 539 311.5 555.0Q311 571 309 586Q309 589 308.0 593.5Q307 598 303.5 602.5Q300 607 293.5 610.0Q287 613 277 612ZM767 12Q761 -1 748 -10Q729 -23 705 -17Q690 -14 681.0 -4.5Q672 5 667.5 17.0Q663 29 661.5 43.0Q660 57 660 70V658Q660 669 660.0 683.5Q660 698 662.0 711.5Q664 725 667.5 737.0Q671 749 678 756Q689 766 696.0 768.5Q703 771 717 771Q734 771 748.0 761.5Q762 752 768 736Q777 715 778.0 693.0Q779 671 780 648V643Q782 567 781.0 492.5Q780 418 780 347V107Q780 81 778.5 57.0Q777 33 767 12Z" fill="#B08060" transform="translate(82.30,266.00) scale(0.01700,-0.01700)"/>
<path d="M344 338Q337 337 312.5 337.0Q288 337 260.0 337.5Q232 338 207.0 338.0Q182 338 174 338H173Q155 338 137.5 338.5Q120 339 104.0 341.5Q88 344 75.0 350.0Q62 356 54 368Q45 381 41.5 401.0Q38 421 36.5 439.5Q35 458 35.5 472.0Q36 486 36 487V509Q36 520 36.0 534.0Q36 548 37 565Q37 583 37.5 600.5Q38 618 38 632V664Q38 667 38.0 675.0Q38 683 39.0 692.5Q40 702 42.0 711.5Q44 721 48 727Q57 741 66.5 747.5Q76 754 91 757Q96 758 106.0 758.5Q116 759 125 760Q136 761 148 761H374Q396 761 420.5 757.5Q445 754 464 742Q479 733 485.0 719.0Q491 705 493.0 689.0Q495 673 494.0 656.5Q493 640 493 626Q493 610 492.5 594.5Q492 579 493 563V508Q492 503 492.5 497.0Q493 491 493 485Q491 472 492.0 459.5Q493 447 493 433Q493 422 491.5 409.5Q490 397 485.5 384.5Q481 372 473.5 362.0Q466 352 454 348Q428 337 399.5 337.5Q371 338 344 338ZM233 -28Q192 -28 167.0 -10.5Q142 7 142 30V174Q140 196 142 219Q144 240 158.5 253.0Q173 266 196 266Q201 266 214.0 265.5Q227 265 232 263Q245 259 252.5 251.0Q260 243 264.0 232.5Q268 222 269.0 210.5Q270 199 271 188Q271 184 271.5 169.5Q272 155 272.5 138.5Q273 122 273.5 108.0Q274 94 275 91Q278 90 291.5 88.5Q305 87 342 87Q374 87 381.5 88.0Q389 89 390 89H717Q717 89 723.5 87.0Q730 85 738.0 80.5Q746 76 753.0 68.5Q760 61 762 51Q767 13 749 -8Q737 -22 723.0 -25.0Q709 -28 708 -28ZM741 455V351Q740 340 738.0 328.5Q736 317 730 306Q723 293 713 287Q697 276 679 276Q664 276 651 284Q641 290 635.0 299.0Q629 308 625.5 316.0Q622 324 621.0 330.5Q620 337 620 337V688Q620 693 621.5 710.5Q623 728 629 740Q639 761 670 764Q687 766 702.0 762.0Q717 758 725 749Q731 741 733.5 733.5Q736 726 738 718Q741 708 741.5 697.0Q742 686 741 675V567Q745 567 754.5 566.0Q764 565 774.5 564.5Q785 564 794.5 563.0Q804 562 808 561Q828 557 836.0 549.5Q844 542 847 531Q849 520 849.0 505.5Q849 491 843 481Q831 461 807.0 458.0Q783 455 754 455ZM216 636Q207 636 199.5 636.0Q192 636 186 634Q172 633 163 622Q159 617 158.5 607.0Q158 597 158 595V553Q157 545 157.0 538.5Q157 532 157 527V515Q157 515 157.0 509.0Q157 503 157.5 495.0Q158 487 160.0 479.0Q162 471 167 465Q175 455 193.0 453.5Q211 452 229 452H230Q256 453 273.0 452.5Q290 452 317 452Q325 452 333.5 451.5Q342 451 350 453Q358 454 361.0 458.0Q364 462 366 468Q368 476 368 481Q372 500 372 524Q372 540 372.5 556.0Q373 572 372 588Q371 596 371.5 604.0Q372 612 370 620Q366 631 357.0 632.5Q348 634 339 634Z" fill="#B08060" transform="translate(102.35,266.00) scale(0.01700,-0.01700)"/>
<path d="M666 387Q677 382 683.5 370.5Q690 359 693 348Q698 326 683 308Q669 291 649.5 282.0Q630 273 608.0 269.5Q586 266 563.0 266.0Q540 266 520 266Q440 266 358.5 264.5Q277 263 196 265Q182 265 167.0 266.5Q152 268 138.0 272.5Q124 277 112.5 286.0Q101 295 94 309Q85 327 81.5 350.0Q78 373 77.0 398.0Q76 423 76.5 447.0Q77 471 77 490V587Q77 589 76.0 602.0Q75 615 75.5 631.5Q76 648 78.5 665.5Q81 683 89 695Q95 705 108.0 711.0Q121 717 134.5 720.0Q148 723 159.0 724.0Q170 725 173 725H573Q574 725 589.0 724.5Q604 724 622.0 721.0Q640 718 657.0 710.0Q674 702 679 686Q680 680 681.0 671.5Q682 663 682.0 654.0Q682 645 680.5 637.0Q679 629 677 625Q673 618 663.0 613.5Q653 609 645 607Q636 605 622.0 603.0Q608 601 589 601H558Q519 603 487.0 603.5Q455 604 423.5 603.5Q392 603 358.0 602.5Q324 602 279 601Q271 601 261.5 602.0Q252 603 242.5 602.0Q233 601 225.5 598.0Q218 595 216 587Q212 570 213.0 545.0Q214 520 212 502Q212 495 211.5 481.0Q211 467 211.5 452.0Q212 437 215.0 424.0Q218 411 225 407Q233 402 246.0 402.0Q259 402 267 402Q348 399 427.0 400.5Q506 402 585 402Q633 402 666 387ZM106 33Q90 34 74.5 37.5Q59 41 47.0 47.5Q35 54 27.5 66.0Q20 78 20 98Q20 118 33 133Q41 141 53.0 145.0Q65 149 76.0 151.0Q87 153 95.5 153.0Q104 153 105 153L652 152Q678 152 699.5 151.5Q721 151 738 137Q759 118 759 94Q759 79 750.0 66.5Q741 54 726 49Q706 41 684.5 38.0Q663 35 642 34Q569 31 498.0 32.0Q427 33 360 33Q288 33 219.5 32.0Q151 31 106 33Z" fill="#B08060" transform="translate(117.29,266.00) scale(0.01700,-0.01700)"/>
<path d="M88 688Q88 701 92.0 714.5Q96 728 104.0 739.5Q112 751 124.0 758.5Q136 766 152 766Q187 766 200.5 743.5Q214 721 217 687L223 595Q225 574 231.0 565.5Q237 557 263 557H568Q581 557 599.5 556.0Q618 555 635.5 549.5Q653 544 665.5 533.0Q678 522 678 502Q678 482 668.0 471.5Q658 461 641.5 456.0Q625 451 605.0 450.0Q585 449 565 449H223Q202 449 178.0 450.5Q154 452 134 462Q112 473 100.5 496.0Q89 519 89 545Q89 550 89.0 568.5Q89 587 88.5 609.0Q88 631 88.0 653.0Q88 675 88 688ZM666 84Q688 84 709.0 69.5Q730 55 728 23Q727 8 720.5 -2.0Q714 -12 704.0 -18.5Q694 -25 683.0 -27.5Q672 -30 662 -30H178Q132 -30 114.0 -12.5Q96 5 96 28V143Q96 172 114.5 190.5Q133 209 154 209Q187 209 201.5 190.0Q216 171 218 148L222 86ZM682 376Q699 376 714.5 373.5Q730 371 741.5 364.0Q753 357 760.0 345.5Q767 334 767 315Q767 297 757.5 286.5Q748 276 733.0 270.0Q718 264 700.5 262.5Q683 261 668 261L97 262Q89 262 76.0 263.5Q63 265 50.5 270.5Q38 276 29.0 286.5Q20 297 20 314Q20 346 42.5 359.5Q65 373 95 375Q117 376 140.5 376.5Q164 377 195.0 377.0Q226 377 267.5 377.0Q309 377 367.0 376.5Q425 376 502.5 376.0Q580 376 682 376Z" fill="#B08060" transform="translate(131.03,266.00) scale(0.01700,-0.01700)"/>
<path d="M531 409Q535 408 534.5 408.0Q534 408 536.0 408.0Q538 408 545.0 408.5Q552 409 570 409H633Q647 409 660 408Q683 406 705 398Q715 394 721.5 386.5Q728 379 731.0 371.0Q734 363 735.0 355.0Q736 347 735 342Q733 323 726.0 316.0Q719 309 697 299Q692 296 678.5 294.5Q665 293 651 292Q634 291 615 290H513Q493 291 468.5 292.5Q444 294 427 305Q419 311 414.5 318.5Q410 326 407.5 335.0Q405 344 404.0 353.5Q403 363 402 372Q400 386 399.5 400.0Q399 414 400 428V647Q400 650 400.5 658.0Q401 666 402.5 675.5Q404 685 406.5 695.0Q409 705 413 711Q417 718 425.5 725.0Q434 732 450 734Q461 736 503.0 737.0Q545 738 627 738Q649 738 668 735Q685 733 701.0 726.5Q717 720 725 708Q736 691 735.5 669.5Q735 648 723 631Q711 614 695.0 611.0Q679 608 662 608H531V539V480ZM172 409Q176 408 176 408Q176 408 178.0 408.0Q180 408 186.5 408.5Q193 409 211 409H264Q278 409 291 408Q315 406 337 398Q347 394 353.0 386.5Q359 379 362.0 371.0Q365 363 366.0 355.0Q367 347 366 342Q364 323 357.0 316.0Q350 309 329 299Q324 296 310.5 294.5Q297 293 283 292Q266 291 247 290H154Q134 291 109.5 292.5Q85 294 68 305Q52 316 49.0 335.5Q46 355 44 372Q42 386 41.5 400.0Q41 414 42 428V647Q42 650 42.5 658.0Q43 666 44.5 675.5Q46 685 48.0 695.0Q50 705 54 711Q59 718 67.0 725.0Q75 732 91 734Q97 735 106.5 736.0Q116 737 132.5 737.5Q149 738 173.0 738.0Q197 738 232 738H249Q271 738 290 735Q307 733 322.5 726.5Q338 720 346 708Q357 691 356.5 669.5Q356 648 344 631Q333 614 316.5 611.0Q300 608 283 608H172V539V480ZM106 33Q90 34 74.5 37.5Q59 41 47.0 47.5Q35 54 27.5 66.0Q20 78 20 98Q20 118 33 133Q41 141 53.0 145.0Q65 149 76.0 151.0Q87 153 95.5 153.0Q104 153 105 153L662 152Q688 152 709.5 151.5Q731 151 748 137Q769 118 769 94Q769 79 760.0 66.5Q751 54 736 49Q716 41 694.5 38.0Q673 35 652 34Q579 31 508.0 32.0Q437 33 370 33Q334 33 296.5 32.5Q259 32 224.5 32.0Q190 32 159.0 32.0Q128 32 106 33Z" fill="#B08060" transform="translate(150.35,266.00) scale(0.01700,-0.01700)"/>
<path d="M782 90Q783 63 779.0 35.0Q775 7 753 -8Q736 -18 723 -18Q706 -18 695.5 -6.0Q685 6 679.5 23.0Q674 40 672.5 58.5Q671 77 671 91V335H606V85Q608 62 604.5 37.5Q601 13 591 -1Q579 -18 556 -18Q545 -18 535.5 -13.0Q526 -8 518 0Q501 17 498.0 41.0Q495 65 495 88V680Q495 694 496.0 708.5Q497 723 502.0 735.5Q507 748 516.5 758.0Q526 768 543 772Q566 777 580 761Q591 750 596.5 732.0Q602 714 604.0 692.5Q606 671 606.0 647.5Q606 624 606 602V456H671V671Q671 685 671.0 702.0Q671 719 674.5 733.5Q678 748 688.5 759.0Q699 770 720 772Q742 774 755 759Q767 747 772.5 728.5Q778 710 780.0 690.0Q782 670 782.0 649.0Q782 628 782 612ZM260 106Q260 121 260.0 134.0Q260 147 260.0 165.0Q260 183 259.5 208.0Q259 233 259.0 273.0Q259 313 259.0 370.0Q259 427 259 508Q259 525 259.0 540.5Q259 556 257 573Q254 591 248.0 596.0Q242 601 224 601Q180 602 146.0 601.5Q112 601 73 601Q38 601 21.0 619.0Q4 637 4 666Q4 695 17.5 710.5Q31 726 57 731Q77 736 95.0 737.0Q113 738 135 738H278Q283 738 288.5 737.5Q294 737 299 737Q312 736 326.5 734.0Q341 732 353 727Q361 724 368.5 719.0Q376 714 381 707Q391 693 392.0 681.0Q393 669 395 652Q397 625 397.0 597.0Q397 569 397 541V221Q397 220 397.5 206.0Q398 192 398.0 172.0Q398 152 398.0 130.5Q398 109 397 93Q394 57 374.5 35.0Q355 13 320 13Q302 13 290.0 22.0Q278 31 271.5 45.0Q265 59 262.5 75.5Q260 92 260 106Z" fill="#B08060" transform="translate(164.26,266.00) scale(0.01700,-0.01700)"/>
<path d="M612 220Q634 212 652.0 202.5Q670 193 683 178Q708 152 708 103Q708 56 683 27Q670 13 652.0 3.5Q634 -6 612 -14Q590 -21 563.5 -25.5Q537 -30 507 -33Q478 -35 446.5 -36.0Q415 -37 380 -37Q345 -37 313.5 -36.0Q282 -35 252 -33Q223 -30 196.5 -25.5Q170 -21 148 -14Q126 -6 108.5 3.5Q91 13 77 27Q52 56 52 103Q52 144 77 172Q91 186 108.5 197.0Q126 208 148 216Q170 224 196.5 228.5Q223 233 252 236Q282 240 313.5 241.5Q345 243 380 243Q415 243 446.5 242.0Q478 241 507 239Q537 237 563.5 232.5Q590 228 612 220ZM589 523Q589 529 589.5 540.0Q590 551 590.0 563.5Q590 576 588.5 586.5Q587 597 583 602Q579 606 566.5 607.0Q554 608 539.0 608.0Q524 608 510.0 607.0Q496 606 489 606Q436 606 377.5 607.0Q319 608 267.0 609.0Q215 610 175.5 611.0Q136 612 121 613Q97 613 77.0 623.0Q57 633 52 661Q47 680 53.5 702.0Q60 724 79 735Q90 741 102.0 743.0Q114 745 127 747Q192 752 254.5 751.5Q317 751 382 749Q433 749 482.5 748.0Q532 747 583 747Q608 747 639.0 742.5Q670 738 689 717Q703 700 704.5 681.0Q706 662 708 642V572Q709 552 708.5 529.0Q708 506 703.5 486.0Q699 466 688.5 452.0Q678 438 658 437Q632 435 618.0 442.5Q604 450 597.5 462.0Q591 474 590.0 490.0Q589 506 589 523ZM744 397Q753 389 754.0 372.5Q755 356 752 343Q748 332 742 329Q739 324 732.5 321.0Q726 318 720 316Q714 314 708.5 313.0Q703 312 698 312Q653 306 611.0 308.0Q569 310 526 310H131Q108 307 85 310Q72 310 60.5 312.5Q49 315 39 323Q25 334 21.0 354.0Q17 374 28 389Q39 401 54 409Q86 418 119.0 416.5Q152 415 185 415H292Q292 433 292.0 452.0Q292 471 294 490Q296 520 315.5 532.5Q335 545 361 542Q386 540 398.0 527.0Q410 514 414.5 495.0Q419 476 418.5 455.0Q418 434 418 415H674Q687 415 697.5 414.5Q708 414 716 411Q725 407 730.5 405.5Q736 404 744 397ZM559 74Q567 79 572.0 86.5Q577 94 577 103Q577 111 572.0 117.0Q567 123 559 126Q550 131 539.0 133.5Q528 136 513 138Q498 142 482.0 142.5Q466 143 449 145H311Q294 143 279.0 142.5Q264 142 250 138Q222 135 207 126Q189 120 189 103Q189 89 207 80Q215 75 225.5 72.5Q236 70 250 67Q264 65 279.0 64.0Q294 63 311 63Q328 63 345.0 62.0Q362 61 380 61H449Q466 61 482.0 61.0Q498 61 513 63Q528 65 539.0 67.5Q550 70 559 74Z" fill="#B08060" transform="translate(184.31,266.00) scale(0.01700,-0.01700)"/>
<path d="M222 -27Q181 -27 156.0 -9.5Q131 8 131 31V175Q129 197 131 220Q133 241 147.5 254.0Q162 267 185 267Q190 267 203.0 266.5Q216 266 221 264Q234 260 241.5 252.0Q249 244 253.0 233.5Q257 223 258.0 211.5Q259 200 260 189Q260 185 260.5 170.5Q261 156 261.5 139.5Q262 123 262.5 109.0Q263 95 264 92Q267 91 280.5 89.5Q294 88 331 88Q363 88 370.5 89.0Q378 90 379 90H706Q706 90 712.5 88.0Q719 86 727.0 81.5Q735 77 742.0 69.5Q749 62 751 52Q756 14 738 -7Q726 -21 712.0 -24.0Q698 -27 697 -27ZM344 756Q353 756 361.5 756.0Q370 756 378 754Q392 749 405.5 742.0Q419 735 428 723Q437 710 442.0 690.5Q447 671 447 655Q447 612 448.0 569.0Q449 526 447 483Q447 469 447.0 453.5Q447 438 446.5 422.5Q446 407 443.0 392.5Q440 378 434 366Q426 352 413.0 344.0Q400 336 385.5 334.0Q371 332 357.0 337.0Q343 342 335 356Q326 371 322.0 388.5Q318 406 317.0 425.0Q316 444 317.0 463.0Q318 482 318 499Q318 524 317.5 551.0Q317 578 315 603Q314 615 309.0 620.5Q304 626 297.0 628.0Q290 630 281.0 630.0Q272 630 262 631Q252 631 248.0 631.0Q244 631 241.0 631.0Q238 631 234.0 630.5Q230 630 220 630H177Q145 630 110.0 631.0Q75 632 38 637Q24 639 17.5 648.0Q11 657 8.5 669.0Q6 681 6.5 694.0Q7 707 9 716Q13 735 30 746Q41 754 53.5 754.5Q66 755 79 756Q93 758 107.0 757.0Q121 756 135 756ZM730 464V373Q729 362 727.0 350.5Q725 339 719 328Q712 315 702 309Q686 298 669 298Q654 298 641 306Q631 312 625.0 321.0Q619 330 615.5 338.0Q612 346 611.0 352.5Q610 359 610 359V689Q610 694 611.5 711.5Q613 729 619 741Q629 762 660 765Q677 767 691.5 763.0Q706 759 714 750Q720 742 722.5 734.5Q725 727 727 719Q730 709 730.5 698.0Q731 687 730 676V576Q734 576 745.0 575.0Q756 574 768.5 573.5Q781 573 792.0 572.0Q803 571 807 570Q827 566 835.0 558.5Q843 551 846 540Q848 529 848.0 514.5Q848 500 842 490Q830 470 806.0 467.0Q782 464 753 464Z" fill="#B08060" transform="translate(197.99,266.00) scale(0.01700,-0.01700)"/>

</svg>